<?xml version="1.0" encoding="UTF-8"?>
<svg width="50px" height="41px" viewBox="0 0 50 41" version="1.1" xmlns="http://www.w3.org/2000/svg" xmlns:xlink="http://www.w3.org/1999/xlink">
    <!-- Generator: sketchtool 62 (101010) - https://sketch.com -->
    <title>40BAD0F4-A0DE-4046-A8D3-3CCF7C6A765D</title>
    <desc>Created with sketchtool.</desc>
    <defs>
        <linearGradient x1="37.556977%" y1="11.1768332%" x2="69.8916382%" y2="87.7380248%" id="linearGradient-1">
            <stop stop-color="#44B2D5" offset="0%"></stop>
            <stop stop-color="#48C9D1" offset="100%"></stop>
        </linearGradient>
        <linearGradient x1="20.8347204%" y1="96.1882119%" x2="78.0649078%" y2="3.8117881%" id="linearGradient-2">
            <stop stop-color="#47C4D2" offset="0%"></stop>
            <stop stop-color="#4CE6CB" offset="100%"></stop>
        </linearGradient>
        <linearGradient x1="37.0298536%" y1="12.8382522%" x2="61.733932%" y2="82.8702409%" id="linearGradient-3">
            <stop stop-color="#45B2D6" offset="0%"></stop>
            <stop stop-color="#3D8DD8" offset="100%"></stop>
        </linearGradient>
        <linearGradient x1="82.7548035%" y1="3.8117881%" x2="25.0059116%" y2="96.1882119%" id="linearGradient-4">
            <stop stop-color="#4174F7" offset="0%"></stop>
            <stop stop-color="#46C1D2" offset="100%"></stop>
        </linearGradient>
    </defs>
    <g id="Page-1" stroke="none" stroke-width="1" fill="none" fill-rule="evenodd">
        <g id="login" transform="translate(-155.000000, -93.000000)">
            <g id="logo02" transform="translate(155.000000, 93.000000)">
                <g id="Group-13-Copy-3">
                    <g id="Group-12" transform="translate(0.000000, 0.302404)">
                        <path d="M29.8025,5.21495192 L29.45875,4.63947115 C28.9558654,3.810625 28.0496154,3.25389423 27.0097115,3.25389423 C25.9875962,3.25389423 25.0928846,3.78706731 24.5842308,4.591875 L24.58375,4.58995192 L22.0073077,8.88033654 L26.9765385,17.2005288 L29.7952885,12.4957212 C31.1375962,10.2548558 31.1404808,7.45822115 29.8025,5.21495192" id="Fill-4" fill="url(#linearGradient-1)"></path>
                        <path d="M29.3818269,4.51024038 C28.865,3.64389423 28.2332692,2.913125 27.5231731,2.31552885 C27.5106731,2.30447115 27.4976923,2.294375 27.4856731,2.28379808 C27.3645192,2.18331731 27.2409615,2.08716346 27.1154808,1.994375 L27.0125962,1.919375 C26.9077885,1.84389423 26.8005769,1.77177885 26.6924038,1.70158654 C26.6616346,1.68139423 26.6308654,1.66216346 26.6000962,1.64245192 C26.6000962,1.64245192 26.6000962,1.64197115 26.5996154,1.64197115 C26.5924038,1.63716346 26.5813462,1.63091346 26.5726923,1.625625 C26.5625962,1.61841346 26.5515385,1.61216346 26.5414423,1.60543269 C26.5327885,1.60014423 26.5246154,1.59581731 26.5159615,1.59052885 C26.4130769,1.52850962 26.28375,1.45399038 26.28375,1.45399038 L26.2789423,1.45399038 C26.20875,1.41408654 26.1395192,1.37322115 26.0683654,1.33524038 C22.2428846,-0.708028846 17.1241346,0.341009615 14.63375,4.49341346 L0.362115385,28.2886058 L7.95826923,28.2886058 C9.44817308,28.2886058 10.8284615,27.506875 11.5948077,26.2294712 L22.0039423,8.87466346 L22.0073077,8.88043269 L23.4145192,6.53620192 C23.5077885,6.38091346 24.2669231,5.119375 24.3635577,4.95495192 L24.4250962,4.85158654 C24.4880769,4.74774038 24.5592308,4.63572115 24.6039423,4.56408654 C25.1154808,3.775625 26.0000962,3.25399038 27.0097115,3.25399038 C28.0496154,3.25399038 28.9558654,3.81072115 29.45875,4.63956731 L29.3818269,4.51024038 Z" id="Fill-6" fill="url(#linearGradient-2)"></path>
                        <path d="M20.4998077,34.725 L20.8435577,35.3004808 C21.3464423,36.1293269 22.2522115,36.6860577 23.2921154,36.6860577 C24.3147115,36.6860577 25.2094231,36.1528846 25.7175962,35.3480769 L25.7185577,35.35 L28.295,31.0596154 L23.3257692,22.7394231 L20.5070192,27.4442308 C19.1647115,29.6850962 19.1618269,32.4817308 20.4998077,34.725" id="Fill-8" fill="url(#linearGradient-3)"></path>
                        <path d="M20.9204808,35.4297115 C21.4373077,36.2960577 22.0685577,37.0268269 22.7786538,37.6244231 C22.7916346,37.6354808 22.8041346,37.6455769 22.8166346,37.6561538 C22.9377885,37.7566346 23.0613462,37.8527885 23.1868269,37.9455769 C23.2204808,37.9705769 23.2546154,37.9955769 23.2897115,38.0205769 C23.3945192,38.0960577 23.5017308,38.1681731 23.6099038,38.2388462 C23.6401923,38.2585577 23.6714423,38.2777885 23.7022115,38.2975 L23.7022115,38.2979808 C23.7094231,38.3027885 23.7209615,38.3095192 23.7296154,38.3148077 C23.7397115,38.3215385 23.7502885,38.3282692 23.7608654,38.3345192 C23.7695192,38.3398077 23.7776923,38.3446154 23.7863462,38.3494231 C23.8892308,38.4114423 24.0185577,38.4859615 24.0185577,38.4859615 L24.0233654,38.4859615 C24.0935577,38.5258654 24.1627885,38.5672115 24.2339423,38.6047115 C28.0589423,40.6479808 33.1776923,39.5989423 35.6685577,35.4465385 L49.9401923,11.6513462 L42.3435577,11.6513462 C40.8541346,11.6513462 39.4733654,12.4330769 38.7075,13.7104808 L28.2983654,31.0652885 L28.295,31.0595192 L26.8877885,33.40375 C26.7940385,33.5595192 26.0353846,34.8205769 25.93875,34.985 L25.8772115,35.0883654 C25.81375,35.1922115 25.7430769,35.3042308 25.6978846,35.3758654 C25.1868269,36.1643269 24.3022115,36.6859615 23.2921154,36.6859615 C22.2522115,36.6859615 21.3464423,36.1292308 20.8435577,35.3003846 L20.9204808,35.4297115 Z" id="Fill-10" fill="url(#linearGradient-4)"></path>
                    </g>
                </g>
            </g>
        </g>
    </g>
</svg>